<?xml version="1.0" encoding="utf-8"?>
<!-- Generator: Adobe Illustrator 27.0.1, SVG Export Plug-In . SVG Version: 6.00 Build 0)  -->
<svg version="1.1" xmlns="http://www.w3.org/2000/svg" xmlns:xlink="http://www.w3.org/1999/xlink" x="0px" y="0px"
	 viewBox="0 0 360 360" style="enable-background:new 0 0 360 360;" xml:space="preserve">
<style type="text/css">
	.st0{fill:none;stroke:#A1F792;stroke-miterlimit:10;}
	.st1{fill:none;stroke:#81C241;stroke-miterlimit:10;}
	.st2{fill:#FFFFFF;}
	.st3{fill:#BDFF92;}
	.st4{fill:#FFFFFF;stroke:#81C241;stroke-width:5;stroke-miterlimit:10;}
	.st5{display:none;}
	.st6{display:inline;fill:none;stroke:#81C241;stroke-width:6;stroke-miterlimit:10;}
	.st7{fill:#FFFFFF;stroke:#A6F987;stroke-miterlimit:10;}
	.st8{fill:#FFFFFF;stroke:#BDFF92;stroke-width:7;stroke-miterlimit:10;}
	.st9{fill:#FFFFFF;stroke:#A1F792;stroke-width:6;stroke-miterlimit:10;}
	.st10{fill:none;stroke:#A1F792;stroke-width:6;stroke-miterlimit:10;}
	.st11{fill:none;stroke:#81C241;stroke-width:6;stroke-miterlimit:10;}
	.st12{fill:none;stroke:#FFFFFF;stroke-miterlimit:10;}
	.st13{fill:none;}
	.st14{font-family:'AirbnbCerealWBd';}
	.st15{font-size:37px;}
	.st16{letter-spacing:-1;}
	.st17{fill:#FFFFFF;stroke:#FFFFFF;stroke-miterlimit:10;}
	.st18{fill:none;stroke:#FFFFFF;stroke-width:7;stroke-linecap:square;stroke-miterlimit:10;}
	.st19{fill:#FFFFFF;stroke:#FFFFFF;stroke-width:6;stroke-miterlimit:10;}
	.st20{fill:none;stroke:#FFFFFF;stroke-width:6;stroke-miterlimit:10;}
</style>
<g id="Layer_1">
</g>
<g id="Layer_2">
	<path class="st0" d="M-230.65,206.1"/>
	<path class="st1" d="M-405.65,88.14"/>
</g>
<g id="Layer_3">
	<g>
		<g>
			<path class="st2" d="M-250.04,259.46c-8.25,0-14.38-2.15-18.23-6.4c-3.82-4.2-5.67-10.53-5.67-19.33V99.06
				c0-5.67,0.81-10.43,2.42-14.15c1.75-4.06,4.55-7.08,8.32-8.96c3.51-1.74,7.94-2.63,13.17-2.63h87.9c6.24,0,11.05,1.64,14.3,4.87
				c3.25,3.23,4.9,7.46,4.9,12.56c0,5.18-1.65,9.45-4.9,12.68c-3.22,3.21-7.99,4.84-14.16,4.87c-12.54,0.98-25.42,1.54-38.28,1.65
				c-2.83,0.03-5.45,0.04-7.9,0.04c-13,0.05-21.59,0.08-24.33,2.68c-2.92,2.77-4.48,7.72-4.18,13.22
				c0.33,6.12,2.91,11.74,6.73,14.67c1.8,1.37,3.31,1.83,8.72,1.83c0,0,0,0,0,0c2.02,0,4.46-0.06,7.55-0.14
				c4.93-0.13,11.67-0.3,20.61-0.3l0.71,0c0.68,0,1.56-0.02,2.62-0.05c1.64-0.04,3.68-0.1,5.96-0.1c15.42,0,25.17,2.78,29.81,8.51
				c2.74,3.38,3.76,7.28,3.86,7.71c0.71,2.89,1.43,8.54-1.83,13.89c-0.62,1.02-1.35,1.96-2.17,2.81c-3.13,3.25-7.77,4.91-13.81,4.94
				c-11.73,1.09-23.76,1.76-35.73,1.98c-3.77,0.07-7.18,0.1-10.27,0.13c-10.64,0.1-19.04,0.18-20.74,1.95
				c-2.2,2.29-1.84,10.63-1.3,23.26c0.53,12.4,0.93,15.2,2.38,16.65c1.75,1.75,4.29,2.43,9.07,2.43c1.32,0,2.72-0.05,4.03-0.1
				c3.54-0.14,8.41-0.41,14.05-0.71c13.98-0.75,31.37-1.68,43.32-1.68c1.27,0,2.47,0.01,3.6,0.03c2.82,0.06,9.42,0.19,14.23,4.99
				c3.32,3.32,5.01,7.71,5.01,13.05c0,5.18-1.68,9.49-5.01,12.8c-3.32,3.31-8.13,4.99-14.3,4.99H-250.04z"/>
			<path class="st3" d="M-162.14,76.82c5.31,0,9.25,1.28,11.83,3.85c2.58,2.57,3.87,5.93,3.87,10.08c0,4.24-1.29,7.64-3.87,10.2
				c-2.58,2.57-6.52,3.85-11.83,3.85c-8.44,0.66-21.73,1.5-38.17,1.65c-20.17,0.18-30.25-0.45-34.6,3.69
				c-8.14,7.74-6.7,25.91,2.84,33.21c2.68,2.05,5.1,2.55,10.85,2.55c5.42,0,13.8-0.44,28.16-0.44c0.23,0,0.47,0,0.71,0
				c0.01,0,0.02,0,0.03,0c1.7,0,4.81-0.15,8.55-0.15c9.13,0,21.99,0.91,27.09,7.21c2.33,2.87,3.19,6.35,3.19,6.35
				c0.25,1,1.57,6.32-1.42,11.23c-0.76,1.24-1.53,2.03-1.71,2.22c-2.47,2.57-6.28,3.85-11.44,3.85c-8.14,0.76-20.49,1.7-35.63,1.98
				c-20.04,0.37-30.13-0.33-33.47,3.16c-3.23,3.37-2.91,10.86-2.27,25.83c0.56,13.15,0.95,16.52,3.4,18.98
				c2.84,2.84,6.75,3.46,11.55,3.46c1.33,0,2.72-0.05,4.17-0.11c12.19-0.5,40.48-2.38,57.23-2.38c1.25,0,2.43,0.01,3.53,0.03
				c2.73,0.05,8.1,0.25,11.83,3.97c2.65,2.65,3.98,6.17,3.98,10.57c0,4.24-1.33,7.68-3.98,10.33c-2.65,2.65-6.6,3.97-11.83,3.97
				h-90.48c-7.25,0-12.47-1.75-15.64-5.25c-3.18-3.5-4.76-9.16-4.76-16.98V99.06c0-5.21,0.71-9.47,2.13-12.77
				c1.42-3.3,3.64-5.7,6.67-7.21c3.03-1.51,6.9-2.26,11.6-2.26H-162.14 M-162.14,69.82h-87.9c-5.78,0-10.73,1.01-14.72,2.99
				c-4.54,2.26-7.9,5.87-9.98,10.71c-1.82,4.22-2.7,9.3-2.7,15.54v134.66c0,9.72,2.15,16.81,6.58,21.69
				c4.54,5.01,11.55,7.55,20.82,7.55h90.48c7.13,0,12.77-2.02,16.77-6.01c3.95-3.94,6.04-9.23,6.04-15.28
				c0-6.3-2.03-11.52-6.03-15.52c-5.81-5.8-13.67-5.96-16.63-6.02c-1.12-0.02-2.36-0.03-3.67-0.03c-12.05,0-29.5,0.93-43.51,1.68
				c-5.63,0.3-10.49,0.56-14,0.7c-1.28,0.05-2.63,0.1-3.89,0.1c-4.58,0-5.91-0.71-6.6-1.41c-0.03-0.03-0.05-0.05-0.05-0.05
				c-0.76-1.31-1.11-9.43-1.32-14.28c-0.38-8.92-0.77-18.13,0.27-20.52c2.38-0.89,10.47-0.97,18.31-1.04
				c3.05-0.03,6.51-0.06,10.3-0.13c12.01-0.22,24.07-0.89,35.84-1.98c6.95-0.06,12.38-2.08,16.14-6c1.01-1.05,1.9-2.2,2.65-3.43
				c2.9-4.77,3.69-10.64,2.23-16.55c-0.21-0.84-1.4-5.2-4.54-9.08c-5.42-6.69-15.75-9.8-32.53-9.8c-2.33,0-4.39,0.06-6.05,0.1
				c-1.02,0.03-1.91,0.05-2.5,0.05l-0.73,0c-8.98,0-15.75,0.17-20.7,0.3c-3.07,0.08-5.49,0.14-7.46,0.14c-5.14,0-5.72-0.44-6.6-1.11
				c-3.03-2.32-5.09-6.95-5.37-12.08c-0.24-4.43,0.95-8.45,3.1-10.5c1.73-1.65,12-1.68,21.93-1.72c2.45-0.01,5.08-0.02,7.92-0.04
				c12.89-0.12,25.81-0.67,38.39-1.65c7.06-0.05,12.6-2.03,16.48-5.88c3.88-3.86,5.93-9.11,5.93-15.17c0-5.98-2.05-11.18-5.93-15.04
				C-149.3,71.8-154.94,69.82-162.14,69.82L-162.14,69.82z"/>
		</g>
	</g>
	<rect x="-284.36" y="270.75" class="st13" width="175.54" height="63.53"/>
	<text transform="matrix(1 0 0 1 -284.3593 298.3474)" class="st3 st14 st15 st16">earthcnc</text>
	<path class="st4" d="M-365.25,165.57"/>
	<path class="st3" d="M-329.42,76.82"/>
</g>
<g id="Layer_7" class="st5">
	<path class="st6" d="M-140.57,76.76c-23.52-4.13-37.6,0.11-63.33-1.1c-7.82-0.37-14.65-0.93-25.02,0
		c-11.44,1.03-19.39,1.75-24.56,4.63c-15.25,8.5-8.7,37.08-9.1,89.61c-0.41,55.38-8.05,72.38,4.94,83.35
		c8.08,6.82,13.38,2.24,52.83,3.53c44.7,1.46,62.9,8.19,71.42-3.18c3.89-5.2,5.96-14.35,2.17-20.62
		c-11.65-19.25-65.4,10.04-85.88-12.49c-10.99-12.09-9.77-35.52-0.61-42.56c4.24-3.26,8.23-1.5,42.14,2.34
		c16.65,1.89,24.74,2.49,31.39-2.73c1.68-1.32,7.18-6.08,7.73-13.65c0.38-5.15-1.62-10.4-4.88-13.72
		c-6.82-6.96-17.05-3.29-34.7-3.11c-9.71,0.1-41.53,0.57-46.4-12.28c-2.61-6.88,2.26-16.19,8.19-20.92
		c6.54-5.22,14.3-5.13,23.08-4.92c47.56,1.17,56.26,2.04,61.41-4.09c5.02-5.98,5.77-16.13,1.82-21.83
		C-130.97,78.64-136.36,77.5-140.57,76.76z"/>
</g>
<g id="Layer_6">
</g>
<g id="Layer_8">
</g>
<g id="Layer_5">
	<path class="st7" d="M-237.47,134.51c-7.95,1.44-11.86,9.06-13.29,11.84c-5.3,10.32-1.66,20.55-1.08,22.12
		c0.63,1.7,2.99,4.97,7.69,11.52c8.38,11.66,10.5,13.24,12.25,12.86c1.62-0.35,2.03-2.18,3.78-5.72c4.58-9.27,7.84-8.98,11.2-15.93
		c1.05-2.18,4.65-9.61,2.58-18.52c-0.44-1.88-2.2-9.01-8.93-13.94C-225.23,137.3-230.71,133.28-237.47,134.51z"/>
	<path class="st2" d="M-221.75,243.5c-10.91-1.81-26.71-8.23-26.95-16.71c-0.09-3.44,2.48-3.19,5.53-10.41
		c3.9-9.24,1.99-15.15,6.32-17.63c2.78-1.59,5.94-0.52,6.19-0.44c3.39,1.2,4.69,4.71,6.33,7.88c3.62,7,5.57,5.96,10.92,13.78
		c3.44,5.03,11.43,16.71,7.83,21.9C-208.25,245.75-216.23,244.42-221.75,243.5z"/>
</g>
<g id="Layer_9">
	<path class="st2" d="M-241.16,182.05c3.88,3.58,8.19,7.56,7.94,12.92c-0.33,6.98-8.25,13.73-13.13,12.44
		c-8.32-2.2-10.84-28.65-5.21-31.24C-248.87,174.93-244.35,179.1-241.16,182.05z"/>
	<path class="st2" d="M-199.27,206.66c-1.35,0.38-9.02,2.75-10.75,10.02c-1.24,5.21,0.84,11.81,6.33,14.45
		c4.31,2.07,10.15,1.42,12.77-1.68c2.73-3.25,0.64-7.64,3.73-9.86c2.38-1.7,4.93-0.06,5.9-1.52c1.3-1.96-1.77-7.18-6-9.84
		C-192.55,204.92-198.28,206.38-199.27,206.66z"/>
	<path class="st7" d="M-134.12,192.89"/>
</g>
<g id="Layer_4">
	<path class="st8" d="M-271.97,224.53c2.09,2.62,8.98,10.67,15.55,9.33c7.14-1.46,11.83-13.58,15.22-22.35
		c0.54-1.4,0.94-2.39,1.74-4.37c1.06-2.63,1.56-3.79,2.22-5.16c0.67-1.4,1.21-2.39,1.42-2.76c1.17-2.12,2.2-3.66,2.6-4.25
		c4.83-7.13,7.24-10.69,9.14-13.3c4.67-6.4,11.07-15.18,10.63-24.23c-0.51-10.65-10.62-24.04-22.22-23.11
		c-11.77,0.94-18.89,16.09-18.31,26.81c0.3,5.54,2.56,9.1,12.19,22.15c3.12,4.23,9.11,12.4,11.13,15.04c1.13,1.48,2.2,2.82,2.2,2.82
		c1.16,1.46,2.08,2.59,4.13,5.07c1.9,2.29,2.84,3.44,4.07,4.9c8.51,10.18,13.02,21.28,19.93,22.35c2.4,0.37,7.46-0.1,15.21-10.34"/>
	<path class="st9" d="M-326.78,171.48"/>
	<path class="st10" d="M-129.7,189.7"/>
	<path class="st11" d="M-377.32,200.9"/>
	<path class="st10" d="M-245.88,221.4"/>
</g>
<g id="Layer_11">
	<rect class="st3" width="360" height="360"/>
</g>
<g id="Layer_10">
	<path class="st12" d="M158.42,196.27"/>
	<g>
		<g>
			<path class="st2" d="M226.93,66.99c5.31,0,9.25,1.28,11.83,3.85c2.58,2.57,3.87,5.93,3.87,10.08c0,4.24-1.29,7.64-3.87,10.2
				c-2.58,2.57-6.52,3.85-11.83,3.85c-8.44,0.66-21.73,1.5-38.17,1.65c-20.17,0.18-30.25-0.45-34.6,3.69
				c-8.14,7.74-6.7,25.91,2.84,33.21c2.68,2.05,5.1,2.55,10.85,2.55c5.42,0,13.8-0.44,28.16-0.44c0.23,0,0.47,0,0.71,0
				c0.01,0,0.02,0,0.03,0c1.7,0,4.81-0.15,8.55-0.15c9.13,0,21.99,0.91,27.09,7.21c2.33,2.87,3.19,6.35,3.19,6.35
				c0.25,1,1.57,6.32-1.42,11.23c-0.76,1.24-1.53,2.03-1.71,2.22c-2.47,2.57-6.28,3.85-11.44,3.85c-8.14,0.76-20.49,1.7-35.63,1.98
				c-20.04,0.37-30.13-0.33-33.47,3.16c-3.23,3.37-2.91,10.86-2.27,25.83c0.56,13.15,0.95,16.52,3.4,18.98
				c2.84,2.84,6.75,3.46,11.55,3.46c1.33,0,2.72-0.05,4.17-0.11c12.19-0.5,40.48-2.38,57.23-2.38c1.25,0,2.43,0.01,3.53,0.03
				c2.73,0.05,8.1,0.25,11.83,3.97c2.65,2.65,3.98,6.17,3.98,10.57c0,4.24-1.33,7.68-3.98,10.33c-2.65,2.65-6.6,3.97-11.83,3.97
				h-90.48c-7.25,0-12.47-1.75-15.64-5.25c-3.18-3.5-4.76-9.16-4.76-16.98V89.23c0-5.21,0.71-9.47,2.13-12.77
				c1.42-3.3,3.64-5.7,6.67-7.21c3.03-1.51,6.9-2.26,11.6-2.26H226.93 M226.93,59.99h-87.9c-5.78,0-10.73,1.01-14.72,2.99
				c-4.54,2.26-7.9,5.87-9.98,10.71c-1.82,4.22-2.7,9.3-2.7,15.54v134.66c0,9.72,2.15,16.81,6.58,21.69
				c4.54,5.01,11.55,7.55,20.82,7.55h90.48c7.13,0,12.77-2.02,16.77-6.01c3.95-3.94,6.04-9.23,6.04-15.28
				c0-6.3-2.03-11.52-6.03-15.52c-5.81-5.8-13.67-5.96-16.64-6.02c-1.12-0.02-2.36-0.03-3.67-0.03c-12.05,0-29.5,0.93-43.51,1.68
				c-5.63,0.3-10.49,0.56-14,0.7c-1.28,0.05-2.63,0.1-3.89,0.1c-4.58,0-5.91-0.71-6.6-1.41c-0.03-0.03-0.05-0.05-0.05-0.05
				c-0.76-1.31-1.11-9.43-1.32-14.28c-0.38-8.92-0.77-18.13,0.27-20.52c2.38-0.89,10.47-0.97,18.31-1.04
				c3.05-0.03,6.51-0.06,10.3-0.13c12.01-0.22,24.07-0.89,35.84-1.98c6.95-0.06,12.38-2.08,16.14-6c1.01-1.05,1.9-2.2,2.65-3.43
				c2.9-4.77,3.69-10.64,2.23-16.55c-0.21-0.85-1.41-5.21-4.54-9.08c-5.42-6.69-15.75-9.8-32.53-9.8c-2.33,0-4.39,0.06-6.05,0.1
				c-1.02,0.03-1.91,0.05-2.5,0.05l-0.73,0c-8.98,0-15.75,0.17-20.7,0.3c-3.07,0.08-5.49,0.14-7.46,0.14c-5.14,0-5.72-0.44-6.6-1.11
				c-3.03-2.32-5.09-6.95-5.37-12.08c-0.24-4.43,0.95-8.45,3.1-10.5c1.73-1.65,12-1.68,21.93-1.72c2.45-0.01,5.08-0.02,7.92-0.04
				c12.89-0.12,25.81-0.67,38.39-1.65c7.06-0.05,12.6-2.03,16.48-5.88c3.88-3.86,5.93-9.11,5.93-15.17c0-5.98-2.05-11.18-5.93-15.04
				C239.77,61.97,234.13,59.99,226.93,59.99L226.93,59.99z"/>
		</g>
	</g>
	<rect x="104.71" y="260.92" class="st13" width="175.54" height="63.53"/>
	<text transform="matrix(1 0 0 1 104.7123 288.5165)" class="st2 st14 st15 st16">earthcnc</text>
	<path class="st3" d="M151.6,124.67c-7.95,1.44-11.86,9.06-13.29,11.84c-5.3,10.32-1.66,20.55-1.08,22.12
		c0.63,1.7,2.99,4.97,7.69,11.52c8.38,11.66,10.5,13.24,12.25,12.86c1.62-0.35,2.03-2.18,3.78-5.72c4.58-9.27,7.84-8.98,11.2-15.93
		c1.05-2.18,4.65-9.61,2.58-18.52c-0.44-1.88-2.2-9.01-8.93-13.94C163.84,127.47,158.36,123.45,151.6,124.67z"/>
	<path class="st3" d="M167.32,233.67c-10.91-1.81-26.71-8.23-26.95-16.71c-0.09-3.44,2.48-3.19,5.53-10.41
		c3.9-9.24,1.99-15.15,6.32-17.63c2.78-1.59,5.94-0.52,6.19-0.44c3.39,1.2,4.69,4.71,6.33,7.88c3.62,7,5.57,5.96,10.92,13.78
		c3.44,5.03,11.43,16.71,7.83,21.9C180.82,235.92,172.85,234.59,167.32,233.67z"/>
	<path class="st3" d="M147.92,172.21c3.88,3.58,8.19,7.56,7.94,12.92c-0.33,6.98-8.25,13.73-13.13,12.44
		c-8.32-2.2-10.84-28.65-5.21-31.24C140.2,165.1,144.72,169.27,147.92,172.21z"/>
	<path class="st3" d="M188.89,198.02c-1.35,0.38-9.02,2.75-10.75,10.02c-1.24,5.21,0.84,11.81,6.33,14.45
		c4.31,2.07,10.15,1.42,12.77-1.68c2.73-3.25,0.64-7.64,3.73-9.86c2.38-1.7,4.93-0.06,5.9-1.52c1.3-1.96-1.77-7.18-6-9.84
		C195.6,196.28,189.88,197.73,188.89,198.02z"/>
	<path class="st17" d="M254.95,183.06"/>
	<path class="st18" d="M117.11,214.69c2.09,2.62,8.98,10.67,15.55,9.33c7.14-1.46,11.83-13.58,15.22-22.35
		c0.54-1.4,0.94-2.39,1.74-4.37c1.06-2.63,1.56-3.79,2.22-5.16c0.67-1.4,1.21-2.39,1.42-2.76c1.17-2.12,2.2-3.66,2.6-4.25
		c4.83-7.13,7.24-10.69,9.14-13.3c4.67-6.4,11.07-15.18,10.63-24.23c-0.51-10.65-10.62-24.04-22.22-23.11
		c-11.77,0.94-18.89,16.09-18.31,26.81c0.3,5.54,2.56,9.1,12.19,22.15c3.12,4.23,9.11,12.4,11.13,15.04c1.13,1.48,2.2,2.82,2.2,2.82
		c1.16,1.46,2.08,2.59,4.13,5.07c1.9,2.29,2.84,3.44,4.07,4.9c8.31,9.93,12.67,21.44,19.93,22.35c2.17,0.27,5.79-0.26,10.85-5.56"/>
	<path class="st19" d="M62.3,161.65"/>
	<path class="st20" d="M259.37,179.87"/>
	<path class="st20" d="M143.19,211.57"/>
	<path class="st3" d="M162.39,224.18"/>
</g>
</svg>
